<?xml version="1.0" standalone="no"?>
<!DOCTYPE svg PUBLIC "-//W3C//DTD SVG 20010904//EN"
 "http://www.w3.org/TR/2001/REC-SVG-20010904/DTD/svg10.dtd">
<svg version="1.0" xmlns="http://www.w3.org/2000/svg"
 width="260.000000pt" height="260.000000pt" viewBox="0 0 260.000000 260.000000"
 preserveAspectRatio="xMidYMid meet">
<metadata>
Created by potrace 1.11, written by Peter Selinger 2001-2013
</metadata>
<g transform="translate(0.000000,260.000000) scale(0.100000,-0.100000)"
fill="#000000" stroke="none">
<path d="M1476 2553 c-1 -1 -116 -3 -256 -5 l-255 -3 2 -170 c1 -93 4 -283 6
-421 l4 -252 -26 8 c-35 11 -62 20 -86 30 -11 5 -128 48 -260 95 -132 47 -274
99 -315 115 -41 15 -78 25 -82 21 -13 -12 -198 -605 -190 -611 4 -4 57 -21
117 -39 61 -18 153 -45 205 -61 52 -16 133 -40 180 -54 212 -63 290 -87 290
-91 0 -7 -250 -352 -294 -406 -7 -8 -32 -42 -56 -75 -24 -32 -68 -92 -97 -131
-30 -40 -52 -77 -49 -82 7 -11 490 -359 508 -366 8 -3 45 45 100 128 205 310
378 562 387 562 5 0 76 -92 157 -205 263 -365 347 -480 351 -480 3 0 10 6 17
12 7 7 28 24 46 38 155 117 445 342 447 348 2 4 -112 155 -252 337 -140 181
-251 333 -247 336 6 6 168 62 182 64 3 0 19 5 35 12 17 6 127 43 245 82 320
105 310 101 310 121 0 9 -34 116 -76 236 -42 121 -87 252 -101 292 -15 44 -30
71 -37 68 -18 -8 -244 -97 -456 -180 -107 -42 -208 -83 -225 -90 -78 -35 -71
-52 -74 191 -3 230 -8 548 -10 598 l-1 30 -71 0 c-39 0 -71 -1 -73 -2z"/>
</g>
</svg>
